<svg width="51" height="50" viewBox="0 0 51 50" fill="none" xmlns="http://www.w3.org/2000/svg">
<rect x="0.5" width="50" height="50" rx="5" fill="#89D7F2"/>
<path d="M40.9163 15.2916L35.208 9.58328C34.463 8.88348 33.4867 8.48195 32.4649 8.45506C31.4431 8.42817 30.4471 8.7778 29.6663 9.43745L10.9163 28.1874C10.2429 28.8665 9.82361 29.7566 9.72881 30.7083L8.83297 39.3958C8.80491 39.7009 8.8445 40.0085 8.94894 40.2966C9.05337 40.5847 9.22006 40.8462 9.43714 41.0624C9.63181 41.2555 9.86268 41.4083 10.1165 41.512C10.3703 41.6156 10.6421 41.6682 10.9163 41.6666H11.1038L19.7913 40.875C20.743 40.7801 21.633 40.3608 22.3121 39.6874L41.0621 20.9374C41.7899 20.1686 42.1832 19.1427 42.1558 18.0844C42.1285 17.0261 41.6828 16.0218 40.9163 15.2916ZM33.833 22.2499L28.2496 16.6666L32.3121 12.4999L37.9996 18.1874L33.833 22.2499Z" fill="#1A488E"/>
</svg>
