<svg width="88" height="51" viewBox="0 0 88 51" fill="none" xmlns="http://www.w3.org/2000/svg">
<rect x="0.5" y="0.5" width="87" height="50" rx="3.5" fill="white"/>
<path fill-rule="evenodd" clip-rule="evenodd" d="M41.5615 32.997V26.7609H45.4817C47.0881 26.7609 48.444 26.3189 49.5493 25.4473L49.8146 25.2264C51.8336 23.4218 51.701 20.6107 49.5493 18.9411C48.4734 18.0573 46.9997 17.5785 45.4817 17.6031H39.1887V32.997H41.5615ZM41.5617 24.8703V19.4934H45.5415C46.3965 19.4934 47.2072 19.7635 47.8115 20.2545C49.0939 21.2857 49.1234 23.0043 47.8852 24.0723C47.2809 24.6002 46.4259 24.8948 45.5415 24.8703H41.5617ZM60.8826 23.2867C59.8657 22.5134 58.4803 22.1205 56.7266 22.1205C54.4717 22.1205 52.7769 22.808 51.6568 24.1706L53.7496 25.2632C54.5159 24.3302 55.5623 23.8637 56.8887 23.8637C57.7287 23.8637 58.5393 24.1215 59.173 24.588C59.792 25.0299 60.1457 25.6683 60.1457 26.3434V26.7976C59.232 26.3803 58.0824 26.1593 56.6676 26.1593C55.017 26.1593 53.6906 26.4785 52.7032 27.1291C51.7158 27.7797 51.2147 28.639 51.2147 29.7316C51.1852 30.7259 51.701 31.6712 52.6148 32.3095C53.5432 32.9969 54.7223 33.3407 56.1076 33.3407C57.7435 33.3407 59.0404 32.7392 60.0278 31.5361H60.131V32.9969H62.4006V26.503C62.4006 25.1404 61.8995 24.0601 60.8826 23.2867ZM54.4426 31.0574C53.9562 30.7628 53.6614 30.284 53.6614 29.7684C53.6614 29.1915 53.9857 28.7127 54.6195 28.3322C55.2681 27.9516 56.0788 27.7552 57.0369 27.7552C58.3635 27.7429 59.3953 27.9884 60.1323 28.4795C60.1323 29.3142 59.7343 30.0385 58.9531 30.6523C58.2455 31.2415 57.2874 31.573 56.2851 31.573C55.6218 31.5853 54.9733 31.4011 54.4426 31.0574ZM67.4998 37.6249L75.4287 22.4642H72.8496L69.1799 30.0262H69.1357L65.3776 22.4642H62.7985L68.0009 32.3218L65.0534 37.6249H67.4998Z" fill="#3C4043"/>
<path d="M33.3699 25.4106C33.3699 24.809 33.3109 24.2075 33.193 23.6183H23.1862V27.0187H28.9191C28.6833 28.1112 27.9169 29.0933 26.7969 29.7071V31.9168H30.216C32.2203 30.3823 33.3699 28.1112 33.3699 25.4106Z" fill="#4285F4"/>
<path d="M23.1866 34.0528C26.0457 34.0528 28.4626 33.2671 30.2164 31.9168L26.7973 29.7071C25.8393 30.2472 24.6161 30.5541 23.1866 30.5541C20.4159 30.5541 18.0726 28.9951 17.2326 26.9082H13.7103V29.1915C15.5083 32.1745 19.1779 34.0528 23.1866 34.0528Z" fill="#34A853"/>
<path d="M17.2329 26.9082C16.7907 25.8156 16.7907 24.6249 17.2329 23.5201V21.249H13.7101C12.1919 23.741 12.1919 26.6872 13.7101 29.1792L17.2329 26.9082Z" fill="#FBBC04"/>
<path d="M23.1866 19.8742C24.7045 19.8496 26.1636 20.3284 27.2541 21.1999L30.2901 18.6711C28.3595 17.1735 25.8246 16.351 23.1866 16.3755C19.1779 16.3755 15.5083 18.266 13.7103 21.249L17.2326 23.5324C18.0726 21.4332 20.4159 19.8742 23.1866 19.8742Z" fill="#EA4335"/>
<rect x="0.5" y="0.5" width="87" height="50" rx="3.5" stroke="#F9F7F6"/>
</svg>
