<svg width="195" height="506" viewBox="0 0 195 506" fill="none" xmlns="http://www.w3.org/2000/svg">
<path d="M-1.58156 46.5132L-2.68396 51.5818L-6.68972 47.415L-1.58156 46.5132Z" fill="#16557B"/>
<path d="M-1.58156 46.5132L-2.68396 51.5818L-6.68972 47.415L-1.58156 46.5132Z" fill="#16557B"/>
<path d="M12.2947 60.9472L11.1923 66.0159L7.1865 61.849L12.2947 60.9472Z" fill="#16557B"/>
<path d="M12.2947 60.9472L11.1923 66.0159L7.1865 61.849L12.2947 60.9472Z" fill="#16557B"/>
<path d="M-0.126483 72.8882L-1.22888 77.9568L-5.23464 73.79L-0.126483 72.8882Z" fill="#16557B"/>
<path d="M26.1711 75.3818L25.0687 80.4505L21.063 76.2836L26.1711 75.3818Z" fill="#16557B"/>
<path d="M26.1711 75.3818L25.0687 80.4505L21.063 76.2836L26.1711 75.3818Z" fill="#16557B"/>
<path d="M13.75 87.3227L12.6476 92.3914L8.64182 88.2245L13.75 87.3227Z" fill="#16557B"/>
<path d="M1.32884 99.2636L0.226438 104.332L-3.77932 100.165L1.32884 99.2636Z" fill="#16557B"/>
<path d="M40.0473 89.8164L38.9449 94.885L34.9392 90.7182L40.0473 89.8164Z" fill="#16557B"/>
<path d="M40.0473 89.8164L38.9449 94.885L34.9392 90.7182L40.0473 89.8164Z" fill="#16557B"/>
<path d="M27.6262 101.757L26.5238 106.826L22.518 102.659L27.6262 101.757Z" fill="#16557B"/>
<path d="M15.2051 113.698L14.1027 118.767L10.0969 114.6L15.2051 113.698Z" fill="#16557B"/>
<path d="M2.78416 125.639L1.68176 130.708L-2.324 126.541L2.78416 125.639Z" fill="#16557B"/>
<path d="M53.9238 104.25L52.8214 109.319L48.8156 105.152L53.9238 104.25Z" fill="#16557B"/>
<path d="M53.9238 104.25L52.8214 109.319L48.8156 105.152L53.9238 104.25Z" fill="#16557B"/>
<path d="M41.5027 116.191L40.4003 121.26L36.3945 117.093L41.5027 116.191Z" fill="#16557B"/>
<path d="M29.0815 128.132L27.9791 133.201L23.9734 129.034L29.0815 128.132Z" fill="#16557B"/>
<path d="M16.6604 140.073L15.558 145.142L11.5522 140.975L16.6604 140.073Z" fill="#16557B"/>
<path d="M4.23924 152.014L3.13684 157.083L-0.868922 152.916L4.23924 152.014Z" fill="#16557B"/>
<path d="M67.8 118.685L66.6976 123.754L62.6919 119.587L67.8 118.685Z" fill="#16557B"/>
<path d="M67.8 118.685L66.6976 123.754L62.6919 119.587L67.8 118.685Z" fill="#16557B"/>
<path d="M55.3789 130.626L54.2765 135.695L50.2707 131.528L55.3789 130.626Z" fill="#16557B"/>
<path d="M42.958 142.567L41.8556 147.636L37.8498 143.469L42.958 142.567Z" fill="#16557B"/>
<path d="M30.5368 154.508L29.4344 159.576L25.4287 155.41L30.5368 154.508Z" fill="#16557B"/>
<path d="M18.1157 166.449L17.0133 171.517L13.0075 167.351L18.1157 166.449Z" fill="#16557B"/>
<path d="M5.69456 178.39L4.59216 183.458L0.586401 179.291L5.69456 178.39Z" fill="#16557B"/>
<path d="M81.6765 133.119L80.5741 138.188L76.5683 134.021L81.6765 133.119Z" fill="#16557B"/>
<path d="M81.6765 133.119L80.5741 138.188L76.5683 134.021L81.6765 133.119Z" fill="#16557B"/>
<path d="M69.2554 145.06L68.153 150.129L64.1472 145.962L69.2554 145.06Z" fill="#16557B"/>
<path d="M56.8342 157.001L55.7318 162.07L51.726 157.903L56.8342 157.001Z" fill="#16557B"/>
<path d="M44.4131 168.942L43.3107 174.011L39.3049 169.844L44.4131 168.942Z" fill="#16557B"/>
<path d="M31.9919 180.883L30.8895 185.952L26.8838 181.785L31.9919 180.883Z" fill="#16557B"/>
<path d="M19.5708 192.824L18.4684 197.893L14.4626 193.726L19.5708 192.824Z" fill="#16557B"/>
<path d="M7.14964 204.765L6.04724 209.834L2.04148 205.667L7.14964 204.765Z" fill="#16557B"/>
<path d="M95.553 147.554L94.4506 152.622L90.4448 148.455L95.553 147.554Z" fill="#16557B"/>
<path d="M95.553 147.554L94.4506 152.622L90.4448 148.455L95.553 147.554Z" fill="#16557B"/>
<path d="M83.1318 159.495L82.0294 164.563L78.0237 160.396L83.1318 159.495Z" fill="#16557B"/>
<path d="M70.7107 171.436L69.6083 176.504L65.6025 172.337L70.7107 171.436Z" fill="#16557B"/>
<path d="M58.2895 183.376L57.1871 188.445L53.1814 184.278L58.2895 183.376Z" fill="#16557B"/>
<path d="M45.8684 195.317L44.766 200.386L40.7602 196.219L45.8684 195.317Z" fill="#16557B"/>
<path d="M33.4472 207.258L32.3448 212.327L28.3391 208.16L33.4472 207.258Z" fill="#16557B"/>
<path d="M21.0261 219.199L19.9237 224.268L15.9179 220.101L21.0261 219.199Z" fill="#16557B"/>
<path d="M8.60496 231.14L7.50256 236.209L3.4968 232.042L8.60496 231.14Z" fill="#16557B"/>
<path d="M109.429 161.988L108.327 167.057L104.321 162.89L109.429 161.988Z" fill="#16557B"/>
<path d="M109.429 161.988L108.327 167.057L104.321 162.89L109.429 161.988Z" fill="#16557B"/>
<path d="M97.008 173.929L95.9056 178.998L91.8999 174.831L97.008 173.929Z" fill="#16557B"/>
<path d="M84.5869 185.87L83.4845 190.939L79.4787 186.772L84.5869 185.87Z" fill="#16557B"/>
<path d="M72.1658 197.811L71.0634 202.88L67.0576 198.713L72.1658 197.811Z" fill="#16557B"/>
<path d="M59.7449 209.752L58.6425 214.821L54.6367 210.654L59.7449 209.752Z" fill="#16557B"/>
<path d="M47.3237 221.693L46.2213 226.761L42.2156 222.595L47.3237 221.693Z" fill="#16557B"/>
<path d="M34.9026 233.634L33.8002 238.702L29.7944 234.536L34.9026 233.634Z" fill="#16557B"/>
<path d="M22.4814 245.575L21.379 250.643L17.3733 246.476L22.4814 245.575Z" fill="#16557B"/>
<path d="M10.0603 257.516L8.95788 262.584L4.95212 258.417L10.0603 257.516Z" fill="#16557B"/>
<path d="M123.306 176.422L122.203 181.491L118.197 177.324L123.306 176.422Z" fill="#16557B"/>
<path d="M123.306 176.422L122.203 181.491L118.197 177.324L123.306 176.422Z" fill="#16557B"/>
<path d="M110.885 188.363L109.782 193.432L105.776 189.265L110.885 188.363Z" fill="#16557B"/>
<path d="M98.4634 200.304L97.361 205.373L93.3552 201.206L98.4634 200.304Z" fill="#16557B"/>
<path d="M86.0422 212.245L84.9398 217.314L80.9341 213.147L86.0422 212.245Z" fill="#16557B"/>
<path d="M73.6211 224.186L72.5187 229.255L68.5129 225.088L73.6211 224.186Z" fill="#16557B"/>
<path d="M61.1999 236.127L60.0975 241.196L56.0918 237.029L61.1999 236.127Z" fill="#16557B"/>
<path d="M48.7788 248.068L47.6764 253.136L43.6706 248.97L48.7788 248.068Z" fill="#16557B"/>
<path d="M36.3576 260.009L35.2552 265.077L31.2495 260.911L36.3576 260.009Z" fill="#16557B"/>
<path d="M23.9365 271.95L22.8341 277.018L18.8283 272.851L23.9365 271.95Z" fill="#16557B"/>
<path d="M11.5154 283.891L10.413 288.96L6.4072 284.793L11.5154 283.891Z" fill="#16557B"/>
<path d="M-0.90578 295.832L-2.00818 300.901L-6.01394 296.734L-0.90578 295.832Z" fill="#16557B"/>
<path d="M137.182 190.857L136.079 195.926L132.074 191.759L137.182 190.857Z" fill="#16557B"/>
<path d="M137.182 190.857L136.079 195.926L132.074 191.759L137.182 190.857Z" fill="#16557B"/>
<path d="M124.761 202.798L123.658 207.866L119.653 203.7L124.761 202.798Z" fill="#16557B"/>
<path d="M112.34 214.739L111.237 219.807L107.231 215.641L112.34 214.739Z" fill="#16557B"/>
<path d="M99.9184 226.68L98.816 231.748L94.8103 227.581L99.9184 226.68Z" fill="#16557B"/>
<path d="M87.4975 238.621L86.3951 243.689L82.3894 239.522L87.4975 238.621Z" fill="#16557B"/>
<path d="M75.0764 250.561L73.974 255.63L69.9682 251.463L75.0764 250.561Z" fill="#16557B"/>
<path d="M62.6553 262.502L61.5529 267.571L57.5471 263.404L62.6553 262.502Z" fill="#16557B"/>
<path d="M50.2341 274.443L49.1317 279.512L45.126 275.345L50.2341 274.443Z" fill="#16557B"/>
<path d="M37.813 286.384L36.7106 291.453L32.7048 287.286L37.813 286.384Z" fill="#16557B"/>
<path d="M25.3918 298.325L24.2894 303.394L20.2837 299.227L25.3918 298.325Z" fill="#16557B"/>
<path d="M12.9707 310.266L11.8683 315.335L7.86252 311.168L12.9707 310.266Z" fill="#16557B"/>
<path d="M0.549543 322.207L-0.552859 327.276L-4.55862 323.109L0.549543 322.207Z" fill="#16557B"/>
<path d="M151.058 205.291L149.956 210.36L145.95 206.193L151.058 205.291Z" fill="#16557B"/>
<path d="M151.058 205.291L149.956 210.36L145.95 206.193L151.058 205.291Z" fill="#16557B"/>
<path d="M138.637 217.232L137.535 222.301L133.529 218.134L138.637 217.232Z" fill="#16557B"/>
<path d="M126.216 229.173L125.114 234.241L121.108 230.075L126.216 229.173Z" fill="#16557B"/>
<path d="M113.795 241.114L112.693 246.182L108.687 242.016L113.795 241.114Z" fill="#16557B"/>
<path d="M101.374 253.055L100.271 258.123L96.2656 253.956L101.374 253.055Z" fill="#16557B"/>
<path d="M88.9526 264.996L87.8502 270.065L83.8445 265.898L88.9526 264.996Z" fill="#16557B"/>
<path d="M76.5315 276.937L75.4291 282.006L71.4233 277.839L76.5315 276.937Z" fill="#16557B"/>
<path d="M64.1103 288.878L63.0079 293.947L59.0022 289.78L64.1103 288.878Z" fill="#16557B"/>
<path d="M51.6892 300.819L50.5868 305.887L46.581 301.721L51.6892 300.819Z" fill="#16557B"/>
<path d="M39.268 312.76L38.1656 317.828L34.1599 313.662L39.268 312.76Z" fill="#16557B"/>
<path d="M26.8469 324.701L25.7445 329.769L21.7387 325.602L26.8469 324.701Z" fill="#16557B"/>
<path d="M14.4258 336.642L13.3234 341.71L9.3176 337.543L14.4258 336.642Z" fill="#16557B"/>
<path d="M2.00486 348.582L0.902463 353.651L-3.1033 349.484L2.00486 348.582Z" fill="#16557B"/>
<path d="M164.935 219.726L163.832 224.794L159.826 220.627L164.935 219.726Z" fill="#16557B"/>
<path d="M164.935 219.726L163.832 224.794L159.826 220.627L164.935 219.726Z" fill="#16557B"/>
<path d="M152.513 231.666L151.411 236.735L147.405 232.568L152.513 231.666Z" fill="#16557B"/>
<path d="M140.092 243.607L138.99 248.676L134.984 244.509L140.092 243.607Z" fill="#16557B"/>
<path d="M127.671 255.548L126.569 260.617L122.563 256.45L127.671 255.548Z" fill="#16557B"/>
<path d="M115.25 267.489L114.148 272.558L110.142 268.391L115.25 267.489Z" fill="#16557B"/>
<path d="M102.829 279.43L101.727 284.499L97.7209 280.332L102.829 279.43Z" fill="#16557B"/>
<path d="M90.4079 291.371L89.3055 296.44L85.2998 292.273L90.4079 291.371Z" fill="#16557B"/>
<path d="M77.9868 303.312L76.8844 308.381L72.8786 304.214L77.9868 303.312Z" fill="#16557B"/>
<path d="M65.5657 315.253L64.4633 320.322L60.4575 316.155L65.5657 315.253Z" fill="#16557B"/>
<path d="M53.1445 327.194L52.0421 332.262L48.0364 328.096L53.1445 327.194Z" fill="#16557B"/>
<path d="M40.7234 339.135L39.621 344.203L35.6152 340.037L40.7234 339.135Z" fill="#16557B"/>
<path d="M28.3022 351.076L27.1998 356.144L23.1941 351.977L28.3022 351.076Z" fill="#16557B"/>
<path d="M15.8811 363.017L14.7787 368.085L10.7729 363.918L15.8811 363.017Z" fill="#16557B"/>
<path d="M3.45994 374.957L2.35754 380.026L-1.64822 375.859L3.45994 374.957Z" fill="#16557B"/>
<path d="M178.811 234.16L177.709 239.228L173.703 235.061L178.811 234.16Z" fill="#16557B"/>
<path d="M178.811 234.16L177.709 239.228L173.703 235.061L178.811 234.16Z" fill="#16557B"/>
<path d="M166.39 246.101L165.287 251.169L161.282 247.002L166.39 246.101Z" fill="#16557B"/>
<path d="M153.969 258.042L152.866 263.111L148.861 258.944L153.969 258.042Z" fill="#16557B"/>
<path d="M141.548 269.983L140.445 275.052L136.439 270.885L141.548 269.983Z" fill="#16557B"/>
<path d="M129.126 281.924L128.024 286.992L124.018 282.826L129.126 281.924Z" fill="#16557B"/>
<path d="M116.705 293.865L115.603 298.933L111.597 294.767L116.705 293.865Z" fill="#16557B"/>
<path d="M104.284 305.806L103.182 310.874L99.176 306.707L104.284 305.806Z" fill="#16557B"/>
<path d="M91.863 317.747L90.7606 322.815L86.7549 318.648L91.863 317.747Z" fill="#16557B"/>
<path d="M79.4419 329.687L78.3395 334.756L74.3337 330.589L79.4419 329.687Z" fill="#16557B"/>
<path d="M67.0207 341.628L65.9183 346.697L61.9126 342.53L67.0207 341.628Z" fill="#16557B"/>
<path d="M54.5996 353.569L53.4972 358.638L49.4914 354.471L54.5996 353.569Z" fill="#16557B"/>
<path d="M42.1784 365.51L41.076 370.579L37.0703 366.412L42.1784 365.51Z" fill="#16557B"/>
<path d="M29.7576 377.451L28.6551 382.52L24.6494 378.353L29.7576 377.451Z" fill="#16557B"/>
<path d="M17.3364 389.392L16.234 394.461L12.2282 390.294L17.3364 389.392Z" fill="#16557B"/>
<path d="M4.91527 401.333L3.81286 406.402L-0.192896 402.235L4.91527 401.333Z" fill="#16557B"/>
<path d="M192.687 248.594L191.585 253.663L187.579 249.496L192.687 248.594Z" fill="#16557B"/>
<path d="M192.687 248.594L191.585 253.663L187.579 249.496L192.687 248.594Z" fill="#16557B"/>
<path d="M180.266 260.535L179.164 265.604L175.158 261.437L180.266 260.535Z" fill="#16557B"/>
<path d="M167.845 272.476L166.743 277.545L162.737 273.378L167.845 272.476Z" fill="#16557B"/>
<path d="M155.424 284.417L154.322 289.486L150.316 285.319L155.424 284.417Z" fill="#16557B"/>
<path d="M143.003 296.358L141.901 301.427L137.895 297.26L143.003 296.358Z" fill="#16557B"/>
<path d="M130.582 308.299L129.479 313.367L125.474 309.201L130.582 308.299Z" fill="#16557B"/>
<path d="M118.161 320.24L117.058 325.308L113.052 321.142L118.161 320.24Z" fill="#16557B"/>
<path d="M105.739 332.181L104.637 337.249L100.631 333.082L105.739 332.181Z" fill="#16557B"/>
<path d="M93.3183 344.122L92.2159 349.19L88.2102 345.023L93.3183 344.122Z" fill="#16557B"/>
<path d="M80.8972 356.062L79.7948 361.131L75.789 356.964L80.8972 356.062Z" fill="#16557B"/>
<path d="M68.4761 368.004L67.3737 373.073L63.3679 368.906L68.4761 368.004Z" fill="#16557B"/>
<path d="M56.0549 379.945L54.9525 385.013L50.9468 380.847L56.0549 379.945Z" fill="#16557B"/>
<path d="M43.6338 391.886L42.5314 396.954L38.5256 392.788L43.6338 391.886Z" fill="#16557B"/>
<path d="M31.2126 403.827L30.1102 408.895L26.1045 404.728L31.2126 403.827Z" fill="#16557B"/>
<path d="M18.7915 415.768L17.6891 420.836L13.6833 416.669L18.7915 415.768Z" fill="#16557B"/>
<path d="M6.37034 427.708L5.26794 432.777L1.26218 428.61L6.37034 427.708Z" fill="#16557B"/>
</svg>
