<svg width="70" height="70" viewBox="0 0 70 70" fill="none" xmlns="http://www.w3.org/2000/svg">
<path d="M51.9493 65.6293C51.689 65.7671 51.7109 65.8109 51.9603 65.684C52.0412 65.6512 52.109 65.6052 52.1681 65.5505C52.1681 65.5046 52.1681 65.5046 51.9493 65.6293ZM52.4743 65.3449C52.3496 65.4477 52.3496 65.4477 52.4984 65.3799C52.5771 65.334 52.6471 65.2902 52.6471 65.2771C52.6471 65.218 52.6121 65.2311 52.4743 65.3449ZM52.8155 65.1393C52.6909 65.2421 52.6909 65.2421 52.8396 65.1743C52.9205 65.1283 52.9883 65.0802 52.9883 65.0693C52.9883 65.0146 52.9533 65.0255 52.8155 65.1393ZM53.1611 64.9358C53.0365 65.0386 53.0365 65.0386 53.1808 64.9686C53.2618 64.9249 53.3296 64.879 53.3296 64.8658C53.3296 64.8111 53.2946 64.8221 53.1611 64.9358ZM53.6271 64.6274C53.3886 64.7871 53.3055 64.8899 53.5243 64.7761C53.6708 64.6864 53.9202 64.4896 53.8764 64.4896C53.7824 64.5246 53.7036 64.5836 53.6249 64.6274H53.6271ZM32.7087 0.0160785C32.549 0.0270162 32.0699 0.0707671 31.6499 0.105768C21.7015 1.00704 12.394 6.36214 6.49448 14.6114C3.23302 19.133 1.11559 24.3853 0.317178 29.9001C0.0349989 31.8252 0 32.3939 0 35.0037C0 37.6112 0.0349989 38.1712 0.317178 40.0963C2.22243 53.2456 11.5759 64.2839 24.2542 68.3746C26.5357 69.1031 28.9266 69.6062 31.6499 69.9147C32.7087 70.0284 37.287 70.0284 38.3457 69.9147C43.053 69.3897 47.0276 68.2281 50.9606 66.2221C51.5643 65.9158 51.6781 65.8349 51.5971 65.7671C49.6722 63.2274 47.7823 60.6854 45.8901 58.1216L40.2969 50.568L33.2905 40.1881C30.9543 36.7143 28.6094 33.2493 26.2273 29.8104C26.2032 29.8104 26.1726 34.424 26.1595 40.0503C26.1354 49.9052 26.1354 50.3055 26.0107 50.533C25.8861 50.8065 25.6804 51.034 25.407 51.1609C25.1905 51.2637 24.9958 51.2856 23.9611 51.2856H22.7777L22.4693 51.0931C22.2768 50.9684 22.1171 50.7955 22.0143 50.5921L21.8656 50.2837L21.8765 36.5656L21.9006 22.8475L22.1171 22.574C22.2549 22.4056 22.4255 22.2678 22.618 22.165C22.9046 22.0271 23.0183 22.0053 24.2017 22.0053C25.5908 22.0053 25.8204 22.06 26.1857 22.4603C29.0207 26.6866 31.8468 30.9239 34.627 35.1743C39.1747 42.0694 45.3826 51.4781 48.4341 56.0938L53.9836 64.4918L54.2571 64.3102C56.9235 62.5317 59.3494 60.4142 61.4428 57.9991C65.8526 52.9503 68.7138 46.7398 69.6828 40.1116C69.965 38.1865 70 37.6156 70 35.008C70 32.3983 69.965 31.8405 69.6828 29.9154C67.7776 16.7661 58.4241 5.72776 45.7458 1.63486C43.3746 0.884534 40.9356 0.372648 38.466 0.110143C37.8032 0.042329 33.2796 -0.0386101 32.7109 0.0204536L32.7087 0.0160785ZM47.0298 21.1849C47.3601 21.3424 47.6094 21.64 47.7232 21.9812C47.7823 22.165 47.7932 25.9691 47.7823 34.5377L47.7582 46.8405L45.5948 43.5154L43.4183 40.1881V31.2564C43.4183 25.466 43.4424 22.2197 43.473 22.06C43.5758 21.6946 43.8252 21.3884 44.1577 21.1959C44.4289 21.0581 44.5339 21.0471 45.6167 21.0471C46.6295 21.0471 46.8023 21.0581 47.0298 21.1849Z" fill="black"/>
</svg>
